# 3ds Max Wavefront OBJ Exporter v0.97b - (c)2007 guruware
# File Created: 19.07.2021 15:17:45

mtllib box.mtl

#
# object default
#

v -34.7954 34.7954 -34.7954
v -34.7954 34.7954 34.7954
v 34.7954 34.7954 34.7954
v 34.7954 34.7954 -34.7954
v -34.7954 -34.7954 34.7954
v 34.7954 -34.7954 34.7954
v -34.7954 -34.7954 -34.7954
v 34.7954 -34.7954 -34.7954
# 8 vertices

vn 0.0000 1.0000 -0.0000
vn 0.0000 0.0000 1.0000
vn -1.0000 0.0000 -0.0000
vn 0.0000 -1.0000 -0.0000
vn 1.0000 0.0000 -0.0000
vn 0.0000 0.0000 -1.0000
# 6 vertex normals

vt 0.8750 0.5000 0.0000
vt 0.8750 0.7500 0.0000
vt 0.6250 0.7500 0.0000
vt 0.6250 0.5000 0.0000
vt 0.6250 1.0000 0.0000
vt 0.3750 1.0000 0.0000
vt 0.3750 0.7500 0.0000
vt 0.6250 0.0000 0.0000
vt 0.6250 0.2500 0.0000
vt 0.3750 0.2500 0.0000
vt 0.3750 0.0000 0.0000
vt 0.3750 0.5000 0.0000
vt 0.1250 0.7500 0.0000
vt 0.1250 0.5000 0.0000
# 14 texture coords

g default
usemtl Material
s off
f 1/1/1 2/2/1 3/3/1 4/4/1
f 3/3/2 2/5/2 5/6/2 6/7/2
f 2/8/3 1/9/3 7/10/3 5/11/3
f 8/12/4 6/7/4 5/13/4 7/14/4
f 4/4/5 3/3/5 6/7/5 8/12/5
f 1/9/6 4/4/6 8/12/6 7/10/6
# 6 polygons

